<svg id="Слой_1" data-name="Слой 1" xmlns="http://www.w3.org/2000/svg" viewBox="0 0 620.29 328.28"><defs><style>.cls-1{fill:#1d1d1b;}.cls-2{fill:#009ee2;}</style></defs><title>logotype</title><path class="cls-1" d="M567,168.08H516.4v161.1h26.52V194.6H567a24.12,24.12,0,1,1,0,48.24H548.29v26.52H567a50.41,50.41,0,0,0,50.65-50.64A50.41,50.41,0,0,0,567,168.08Z" transform="translate(-4.39 -0.95)"/><path class="cls-2" d="M424.93,302.7a31.43,31.43,0,0,1-31.6-31.59v-103H366.81v103a58.12,58.12,0,1,0,116.24,0v-103H456.53v103a31.45,31.45,0,0,1-31.6,31.59Z" transform="translate(-4.39 -0.95)"/><path class="cls-1" d="M250.29,211.7a15.79,15.79,0,1,1-4.63-11.14A15.18,15.18,0,0,1,250.29,211.7Zm-3.14,0a12.65,12.65,0,1,0-3.71,8.94A12.11,12.11,0,0,0,247.15,211.7Z" transform="translate(-4.39 -0.95)"/><path class="cls-1" d="M328,186.23a5.89,5.89,0,0,1-2,4.56,7.18,7.18,0,0,1-9.53,0,5.89,5.89,0,0,1-2-4.56h3.07a3.77,3.77,0,0,0,1,2.69,3.53,3.53,0,0,0,2.64,1.06,3.46,3.46,0,0,0,2.65-1,3.82,3.82,0,0,0,1-2.71Z" transform="translate(-4.39 -0.95)"/><polygon class="cls-1" points="43.61 226.36 55.71 202.21 67.71 226.36 71.24 226.36 55.7 194.99 40.06 226.36 43.61 226.36"/><polygon class="cls-1" points="109.21 226.35 109.21 212.34 125.01 212.34 125.01 226.35 128.15 226.35 128.15 194.99 125.01 194.99 125.01 209.2 109.21 209.2 109.21 194.99 106.07 194.99 106.07 226.35 109.21 226.35"/><polygon class="cls-1" points="213.33 194.99 194.4 194.99 194.4 226.35 197.55 226.35 197.55 198.14 213.33 198.14 213.33 194.99"/><polygon class="cls-1" points="169.18 226.35 169.18 212.34 184.97 212.34 184.97 226.35 188.11 226.35 188.11 194.99 184.97 194.99 184.97 209.2 169.18 209.2 169.18 194.99 166.03 194.99 166.03 226.35 169.18 226.35"/><path class="cls-1" d="M287.05,208.57h-6.3V195.94H277.6v31.52h9.46a9.45,9.45,0,1,0,0-18.89Zm4.47,13.92a6.12,6.12,0,0,1-4.47,1.85h-6.3V211.71h6.3a6.31,6.31,0,0,1,4.47,10.78Z" transform="translate(-4.39 -0.95)"/><rect class="cls-1" x="294.23" y="194.99" width="3.14" height="31.36"/><polygon class="cls-1" points="137.65 220.36 137.65 194.99 134.46 194.99 134.46 226.53 136.84 226.53 156.57 201.17 156.57 226.35 159.72 226.35 159.72 194.99 157.36 194.99 137.65 220.36"/><polygon class="cls-1" points="306.9 220.36 306.9 194.99 303.71 194.99 303.71 226.53 306.09 226.53 325.82 201.17 325.82 226.35 328.96 226.35 328.96 194.99 326.61 194.99 306.9 220.36"/><polygon class="cls-1" points="277.42 272.22 277.42 246.85 274.22 246.85 274.22 278.39 276.6 278.39 296.33 253.03 296.33 278.21 299.48 278.21 299.48 246.85 297.12 246.85 277.42 272.22"/><polygon class="cls-1" points="77.69 220.36 77.69 194.99 74.5 194.99 74.5 226.53 76.88 226.53 96.61 201.17 96.61 226.35 99.76 226.35 99.76 194.99 97.4 194.99 77.69 220.36"/><polygon class="cls-1" points="223.75 275.25 207.96 275.25 207.96 264.2 220.59 264.2 220.59 261.06 207.96 261.06 207.96 249.99 223.75 249.99 223.75 246.85 204.82 246.85 204.82 278.39 223.75 278.39 223.75 275.25"/><polygon class="cls-1" points="23.07 210.77 36.61 197.23 38.85 194.99 34.37 194.99 20.39 208.97 18.58 210.77 20.39 212.57 34.21 226.36 38.71 226.36 36.44 224.13 23.07 210.77"/><rect class="cls-1" x="16.09" y="194.99" width="3.15" height="31.36"/><path class="cls-1" d="M201.4,273.25c-.24.2-.44.37-.59.51a12,12,0,0,1-7.45,2.44,12.63,12.63,0,0,1,0-25.26,12,12,0,0,1,7.45,2.44c.66.56,1.16,1,1.47,1.27l.05,0,2.21-2.21s0,0,0-.06a12.93,12.93,0,0,0-5.08-3.41,16.42,16.42,0,0,0-6-1.2,15.77,15.77,0,0,0,0,31.54,16.61,16.61,0,0,0,6-1.19,13.8,13.8,0,0,0,4.27-2.61Z" transform="translate(-4.39 -0.95)"/><path class="cls-1" d="M331.91,273.25l-.6.51a11.91,11.91,0,0,1-7.44,2.44,12.63,12.63,0,0,1,0-25.26,11.91,11.91,0,0,1,7.44,2.44c.67.56,1.16,1,1.48,1.27l0,0,2.22-2.21a.21.21,0,0,1,0-.06,13,13,0,0,0-5.08-3.41,16.5,16.5,0,0,0-6.05-1.2,15.77,15.77,0,0,0,0,31.54,16.69,16.69,0,0,0,6.05-1.19,13.92,13.92,0,0,0,4.27-2.61Z" transform="translate(-4.39 -0.95)"/><path class="cls-1" d="M117.18,38.79l11.88-24A79,79,0,0,0,85,1.58c-22.22,0-41.4,7.92-57,23.54s-23.54,34.8-23.54,57,7.92,41.39,23.54,57,34.8,23.54,57,23.54a78.93,78.93,0,0,0,43.44-12.75l-11.86-24A52.24,52.24,0,0,1,85,136.16a52.3,52.3,0,0,1-38.24-15.79A52.31,52.31,0,0,1,30.92,82.14,52.32,52.32,0,0,1,46.71,43.9,52.3,52.3,0,0,1,85,28.11,52,52,0,0,1,117.18,38.79Z" transform="translate(-4.39 -0.95)"/><path class="cls-2" d="M424.25,1.51c-3.62,6.93-81.38,161.25-81.38,161.25h29.66L424.28,59.91l51.54,102.85h29.66S427.89,8.44,424.25,1.51Z" transform="translate(-4.39 -0.95)"/><path class="cls-1" d="M168.63,1.57l-13.26,0-13.27,0V162.7h98.76V136.17H168.63Z" transform="translate(-4.39 -0.95)"/><polygon class="cls-1" points="345.73 135.34 275.56 135.34 275.56 94.38 335.11 94.38 335.11 67.85 275.56 67.85 275.56 27.09 350.33 27.09 350.33 0.56 249.04 0.56 249.04 161.81 332.42 161.81 345.73 135.34"/><path class="cls-1" d="M598.31,1V110.36L513,1H493.63c0,2.57,0,79.12,0,126l18,35.82h8.52V52.93l85.09,109.41h19.43V1Z" transform="translate(-4.39 -0.95)"/><path class="cls-1" d="M248.48,250.57a9.08,9.08,0,0,0-6.69-2.77h-9.45v31.54h3.14v-28.4h6.3a6.33,6.33,0,1,1,0,12.65h-5.14v3.15h5.14a9.48,9.48,0,0,0,6.7-16.17Z" transform="translate(-4.39 -0.95)"/><path class="cls-1" d="M269.83,261.82a7.86,7.86,0,0,0,.63-11.71,7.63,7.63,0,0,0-5.58-2.31h-9.45v31.54h9.45a9.47,9.47,0,0,0,9.46-9.46A8.91,8.91,0,0,0,269.83,261.82Zm-.49,12.52a6.1,6.1,0,0,1-4.47,1.86h-6.3V263.57h0v-3.15h0v-9.48h6.32a4.75,4.75,0,0,1,4.74,4.74,4.75,4.75,0,0,1-4.74,4.74h-5.15v3.15h5.13a6.3,6.3,0,0,1,4.47,10.77Z" transform="translate(-4.39 -0.95)"/><path class="cls-1" d="M268.88,210a7.89,7.89,0,0,0-4.94-14h-9.46v31.54h9.46A9.47,9.47,0,0,0,273.4,218,8.9,8.9,0,0,0,268.88,210Zm-.49,12.51a6.06,6.06,0,0,1-4.46,1.86h-6.3V199.09h6.31a4.74,4.74,0,0,1,0,9.48h-5.15v3.14h5.14a6.3,6.3,0,0,1,4.46,10.77Z" transform="translate(-4.39 -0.95)"/></svg>