<?xml version="1.0" encoding="utf-8"?>
<!-- Generator: Adobe Illustrator 22.1.0, SVG Export Plug-In . SVG Version: 6.00 Build 0)  -->
<svg version="1.1" id="Слой_1" xmlns="http://www.w3.org/2000/svg" xmlns:xlink="http://www.w3.org/1999/xlink" x="0px" y="0px"
	 viewBox="0 0 630 330" style="enable-background:new 0 0 630 330;" xml:space="preserve">
<style type="text/css">
	.st0{fill:#FFFFFF;}
	.st1{fill:#009EE2;}
</style>
<g>
	<path class="st0" d="M567,168.1h-50.6v161.1h26.5V194.6H567c6.7,0,12.4,2.4,17.1,7c4.7,4.7,7,10.4,7,17.1c0,6.7-2.4,12.4-7,17.1
		c-4.7,4.7-10.4,7-17.1,7h-18.7v26.5H567c14,0,26.1-5,35.9-14.8c9.8-9.8,14.8-21.9,14.8-35.9c0-14-5-26.1-14.8-35.9
		C593.1,173,581.1,168.1,567,168.1z"/>
	<path class="st1" d="M424.9,302.7c-8.7,0-16.3-3.1-22.4-9.2c-6.1-6.1-9.2-13.6-9.2-22.4v-103h-26.5v103c0,16.1,5.7,29.9,17,41.2
		c11.2,11.3,25.1,17,41.2,17c16.1,0,29.9-5.7,41.2-17c11.3-11.3,17-25.1,17-41.2v-103h-26.5v103c0,8.7-3.1,16.3-9.2,22.4
		C441.2,299.6,433.7,302.7,424.9,302.7z"/>
	<g>
		<path class="st0" d="M250.3,211.7c0,4.4-1.5,8.1-4.6,11.2c-3.1,3.1-6.8,4.6-11.1,4.6c-4.3,0-8.1-1.5-11.1-4.6
			c-3.1-3.1-4.6-6.8-4.6-11.2c0-4.3,1.5-8.1,4.6-11.1c3.1-3.1,6.8-4.6,11.1-4.6c4.3,0,8,1.5,11.1,4.6
			C248.7,203.6,250.3,207.4,250.3,211.7z M247.2,211.7c0-3.5-1.2-6.4-3.7-8.9c-2.5-2.5-5.4-3.7-8.9-3.7c-3.5,0-6.5,1.2-8.9,3.7
			c-2.5,2.5-3.7,5.4-3.7,8.9c0,3.5,1.2,6.5,3.7,8.9c2.5,2.5,5.4,3.7,8.9,3.7c3.5,0,6.4-1.2,8.9-3.7
			C245.9,218.2,247.2,215.2,247.2,211.7z"/>
	</g>
	<g>
		<path class="st0" d="M328,186.2c0,1.8-0.7,3.4-2,4.6c-1.3,1.2-2.9,1.8-4.8,1.8c-1.8,0-3.4-0.6-4.7-1.8c-1.3-1.2-2-2.7-2-4.6h3.1
			c0,1.1,0.3,2,1,2.7c0.7,0.7,1.6,1.1,2.6,1.1c1.1,0,2-0.3,2.6-1c0.6-0.7,1-1.6,1-2.7H328z"/>
	</g>
	<g>
		<polygon class="st0" points="48,227.3 60.1,203.2 72.1,227.3 75.6,227.3 60.1,195.9 44.5,227.3 		"/>
	</g>
	<g>
		<polygon class="st0" points="113.6,227.3 113.6,213.3 129.4,213.3 129.4,227.3 132.5,227.3 132.5,195.9 129.4,195.9 129.4,210.2 
			113.6,210.2 113.6,195.9 110.5,195.9 110.5,227.3 		"/>
	</g>
	<g>
		<polygon class="st0" points="217.7,195.9 198.8,195.9 198.8,227.3 201.9,227.3 201.9,199.1 217.7,199.1 		"/>
	</g>
	<g>
		<polygon class="st0" points="173.6,227.3 173.6,213.3 189.4,213.3 189.4,227.3 192.5,227.3 192.5,195.9 189.4,195.9 189.4,210.2 
			173.6,210.2 173.6,195.9 170.4,195.9 170.4,227.3 		"/>
	</g>
	<g>
		<path class="st0" d="M287.1,208.6h-6.3v-12.6h-3.1v31.5h9.5c2.6,0,4.8-0.9,6.7-2.8c1.9-1.9,2.8-4.1,2.8-6.7c0-2.6-0.9-4.8-2.8-6.7
			C291.9,209.5,289.7,208.6,287.1,208.6z M291.5,222.5c-1.2,1.2-2.7,1.9-4.5,1.9h-6.3v-12.6h6.3c1.7,0,3.2,0.6,4.5,1.9
			c1.2,1.2,1.9,2.7,1.9,4.5C293.4,219.8,292.8,221.3,291.5,222.5z"/>
	</g>
	<g>
		<rect x="298.6" y="195.9" class="st0" width="3.1" height="31.4"/>
	</g>
	<g>
		<polygon class="st0" points="142,221.3 142,195.9 138.9,195.9 138.9,227.5 141.2,227.5 161,202.1 161,227.3 164.1,227.3 
			164.1,195.9 161.8,195.9 		"/>
	</g>
	<g>
		<polygon class="st0" points="311.3,221.3 311.3,195.9 308.1,195.9 308.1,227.5 310.5,227.5 330.2,202.1 330.2,227.3 333.4,227.3 
			333.4,195.9 331,195.9 		"/>
	</g>
	<g>
		<polygon class="st0" points="281.8,273.2 281.8,247.8 278.6,247.8 278.6,279.3 281,279.3 300.7,254 300.7,279.2 303.9,279.2 
			303.9,247.8 301.5,247.8 		"/>
	</g>
	<g>
		<polygon class="st0" points="82.1,221.3 82.1,195.9 78.9,195.9 78.9,227.5 81.3,227.5 101,202.1 101,227.3 104.1,227.3 
			104.1,195.9 101.8,195.9 		"/>
	</g>
	<g>
		<polygon class="st0" points="228.1,276.2 212.4,276.2 212.4,265.2 225,265.2 225,262 212.4,262 212.4,250.9 228.1,250.9 
			228.1,247.8 209.2,247.8 209.2,279.3 228.1,279.3 		"/>
	</g>
	<g>
		<polygon class="st0" points="27.5,211.7 41,198.2 43.2,195.9 38.8,195.9 24.8,209.9 23,211.7 24.8,213.5 38.6,227.3 43.1,227.3 
			40.8,225.1 		"/>
	</g>
	<g>
		<rect x="20.5" y="195.9" class="st0" width="3.1" height="31.4"/>
	</g>
	<g>
		<path class="st0" d="M201.4,273.2c-0.2,0.2-0.4,0.4-0.6,0.5c-2.1,1.6-4.6,2.4-7.4,2.4c-3.5,0-6.4-1.2-8.9-3.7
			c-2.5-2.5-3.7-5.4-3.7-8.9c0-3.5,1.2-6.4,3.7-8.9c2.5-2.5,5.4-3.7,8.9-3.7c2.8,0,5.3,0.8,7.4,2.4c0.7,0.6,1.2,1,1.5,1.3
			c0,0,0,0,0,0l2.2-2.2c0,0,0,0,0-0.1c-1.2-1.4-2.9-2.5-5.1-3.4c-2-0.8-4.1-1.2-6.1-1.2c-4.3,0-8.1,1.5-11.1,4.6
			c-3.1,3.1-4.6,6.8-4.6,11.1c0,4.4,1.5,8.1,4.6,11.2c3.1,3.1,6.8,4.6,11.2,4.6c2,0,4-0.4,6.1-1.2c1.7-0.7,3.1-1.6,4.3-2.6
			L201.4,273.2z"/>
	</g>
	<g>
		<path class="st0" d="M331.9,273.2c-0.2,0.2-0.4,0.4-0.6,0.5c-2.1,1.6-4.6,2.4-7.4,2.4c-3.5,0-6.4-1.2-8.9-3.7
			c-2.5-2.5-3.7-5.4-3.7-8.9c0-3.5,1.2-6.4,3.7-8.9c2.5-2.5,5.4-3.7,8.9-3.7c2.8,0,5.3,0.8,7.4,2.4c0.7,0.6,1.2,1,1.5,1.3
			c0,0,0,0,0,0l2.2-2.2c0,0,0,0,0-0.1c-1.2-1.4-2.9-2.5-5.1-3.4c-2-0.8-4.1-1.2-6.1-1.2c-4.3,0-8,1.5-11.1,4.6
			c-3.1,3.1-4.6,6.8-4.6,11.1c0,4.4,1.5,8.1,4.6,11.2c3.1,3.1,6.8,4.6,11.2,4.6c2,0,4-0.4,6.1-1.2c1.7-0.7,3.1-1.6,4.3-2.6
			L331.9,273.2z"/>
	</g>
	<path class="st0" d="M117.2,38.8l11.9-24C115.8,6,100.9,1.6,84.9,1.6c-22.2,0-41.4,7.9-57,23.5C12.3,40.7,4.4,59.9,4.4,82.1
		c0,22.2,7.9,41.4,23.5,57c15.6,15.6,34.8,23.5,57,23.5c15.7,0,30.3-4.3,43.4-12.7l-11.9-24c-9.2,6.8-19.8,10.2-31.6,10.2
		c-14.9,0-27.8-5.3-38.2-15.8C36.2,109.9,30.9,97,30.9,82.1s5.3-27.8,15.8-38.2c10.5-10.5,23.3-15.8,38.2-15.8
		C97,28.1,107.9,31.7,117.2,38.8z"/>
	<path class="st1" d="M424.2,1.5c-3.6,6.9-81.4,161.2-81.4,161.2h29.7l51.7-102.8l51.5,102.8h29.7C505.5,162.8,427.9,8.4,424.2,1.5z
		"/>
	<path class="st0" d="M168.6,1.6c-3.6,0-10,0-13.3,0c-3.2,0-9.6,0-13.3,0v161.1h98.8v-26.5h-72.2V1.6z"/>
	<polygon class="st0" points="350.1,136.3 280,136.3 280,95.3 339.5,95.3 339.5,68.8 280,68.8 280,28 354.7,28 354.7,1.5 253.4,1.5 
		253.4,162.8 336.8,162.8 	"/>
	<path class="st0" d="M598.3,0.9v109.4L513,0.9h-19.4c0,2.6,0,79.1,0,126l18,35.8h8.5V52.9l85.1,109.4h19.4V0.9H598.3z"/>
	<g>
		<path class="st0" d="M248.5,250.6c-1.8-1.8-4.1-2.8-6.7-2.8h-9.5v31.5h3.1v-10.3v-2.4v-3.1v-3.2v-9.5h6.3c1.7,0,3.2,0.6,4.5,1.9
			c1.2,1.2,1.9,2.7,1.9,4.5c0,1.7-0.6,3.2-1.9,4.5c-1.2,1.2-2.7,1.9-4.5,1.9h-5.1v3.1h5.1c2.6,0,4.9-0.9,6.7-2.8
			c1.8-1.9,2.8-4.1,2.8-6.7C251.3,254.6,250.3,252.4,248.5,250.6z"/>
	</g>
	<g>
		<path class="st0" d="M269.8,261.8c2-1.6,2.9-3.6,2.9-6.1c0-2.2-0.8-4-2.3-5.6c-1.5-1.5-3.4-2.3-5.6-2.3h-9.5v31.5h9.5
			c2.6,0,4.8-0.9,6.7-2.8c1.9-1.8,2.8-4.1,2.8-6.7C274.3,266.4,272.8,263.7,269.8,261.8z M269.3,274.3c-1.2,1.2-2.7,1.9-4.5,1.9
			h-6.3v-12.6h0v-3.1h0v-9.5h6.3c1.3,0,2.4,0.5,3.4,1.4c0.9,0.9,1.4,2,1.4,3.3c0,1.3-0.5,2.4-1.4,3.4c-0.9,0.9-2,1.4-3.4,1.4h-5.2
			v3.1h5.1c1.7,0,3.2,0.6,4.5,1.9c1.2,1.2,1.9,2.7,1.9,4.5C271.2,271.6,270.6,273.1,269.3,274.3z"/>
	</g>
	<g>
		<path class="st0" d="M268.9,210c2-1.6,3-3.6,3-6.1c0-2.2-0.8-4-2.3-5.6c-1.5-1.5-3.4-2.3-5.6-2.3h-9.5v31.5h9.5
			c2.6,0,4.8-0.9,6.7-2.8c1.9-1.8,2.8-4.1,2.8-6.7C273.4,214.5,271.9,211.8,268.9,210z M268.4,222.5c-1.2,1.2-2.7,1.9-4.5,1.9h-6.3
			v-10.9v-1.7v-3.1v-3.8v-5.7h6.3c1.3,0,2.4,0.5,3.4,1.4c0.9,0.9,1.4,2,1.4,3.3s-0.5,2.4-1.4,3.3c-0.9,0.9-2,1.4-3.4,1.4h-5.2v3.1
			h5.1c1.7,0,3.2,0.6,4.5,1.9c1.2,1.2,1.9,2.7,1.9,4.5C270.3,219.8,269.6,221.2,268.4,222.5z"/>
	</g>
</g>
</svg>
