<?xml version="1.0" encoding="utf-8"?>
<!-- Generator: Adobe Illustrator 22.1.0, SVG Export Plug-In . SVG Version: 6.00 Build 0)  -->
<svg version="1.1" id="Слой_1" xmlns="http://www.w3.org/2000/svg" xmlns:xlink="http://www.w3.org/1999/xlink" x="0px" y="0px"
	 viewBox="0 0 1024 415.5" style="enable-background:new 0 0 1024 415.5;" xml:space="preserve">
<style type="text/css">
	.st0{fill:#1D1D1B;}
	.st1{display:none;fill:none;stroke:#000000;stroke-width:7.0866;stroke-miterlimit:22.9256;}
	.st2{fill:#C4A67D;}
</style>
<path class="st0" d="M350.2,135.6h180.4v47.4H470v144.5h-59.2V183.1h-60.6L350.2,135.6L350.2,135.6z M675.2,295.9H608l-9.6,31.6
	h-60.5l72.2-191.9H675l71.9,191.9h-62.1L675.2,295.9L675.2,295.9z M662.6,254.4l-20.9-69l-21,69H662.6L662.6,254.4z M1024,327.6
	H765.9V135.6h59.2v144.7h39.9V135.6h59.2v144.7h40.5V135.6h59.2L1024,327.6L1024,327.6z"/>
<polygon class="st1" points="225,452.5 300,377.5 327,404.5 252,479.5 "/>
<polygon class="st2" points="0,278.9 132.8,146.1 180.6,193.9 47.8,326.7 "/>
<polygon class="st1" points="304.6,373.6 379.6,298.7 406.6,325.7 331.6,400.6 "/>
<polygon class="st2" points="141,139.3 273.8,6.5 321.6,54.3 188.8,187.1 "/>
<polygon class="st1" points="300.1,440.5 375.1,365.5 402.1,392.5 327.1,467.5 "/>
<polygon class="st2" points="133,257.7 265.9,124.9 313.7,172.7 180.9,305.5 "/>
<polygon class="st1" points="231.2,383.5 306.2,308.6 333.2,335.5 258.2,410.5 "/>
<polygon class="st2" points="11,156.8 143.8,24 191.6,71.8 58.8,204.6 "/>
<polygon class="st0" points="1024,327.6 765.9,327.6 765.9,135.6 825.1,135.6 825.1,280.4 865.1,280.4 865.1,135.6 924.3,135.6 
	924.3,280.4 964.8,280.4 964.8,135.6 1024,135.6 "/>
<path class="st1" d="M522,373.5l-0.6,3.7c-1.6,0.1-2.9,0.2-4.1,0.2c-1.7,0-3.7-0.1-6.1-0.4c-4-0.4-6.6-0.6-7.7-0.6
	c-1.8,0-4.6,0.3-8.3,0.8c1.3-3.3,2.4-6.9,3.3-10.5c0.7-2.6,1.3-7.1,2.1-13.5c-5,0-12.7,0-23.1,0.3c-11,16.7-19.1,27.2-24.2,31.5
	c-5.1,4.3-10,6.4-14.6,6.4c-2.4,0-4.2-0.5-5.4-1.4c-1.2-0.9-1.8-2.2-1.8-3.6c0-1.1,0.4-2.1,1-2.8c0.7-0.7,1.5-1.1,2.6-1.1
	c0.6,0,1.4,0.1,2.4,0.4c2.6,0.6,4.3,1,5.2,1c2.9,0,6.1-1.6,9.5-4.9c5.6-5.3,14-16.5,25-33.6c12.5-19.3,22.6-33.3,30.3-42.1
	c-10.5,1-17.1,1.9-19.7,2.8c-3.6,1.2-6.3,2.9-8,5.2c-1.8,2.3-2.7,4.6-2.7,7c0,0.8,0.3,1.9,0.8,3.3c0.6,1.6,0.9,2.8,0.9,3.5
	c0,0.9-0.4,1.8-1.1,2.5c-0.7,0.7-1.6,1.1-2.6,1.1c-1.5,0-2.6-0.6-3.5-1.7c-0.9-1.1-1.3-2.7-1.3-4.9c0-3.1,0.8-6.1,2.4-9
	c1.6-2.9,3.9-5.3,6.9-7.3c3-2,6.8-3.5,11.3-4.5c2.3-0.6,6.4-1,12.3-1.5c5.1-0.4,8.3-0.8,9.6-1.2c2-0.6,4-1.6,5.9-3.3
	c-1.3,5.3-2.2,9.9-2.8,13.9l-5.1,37.3l-2.9,26.7c3.2,0.7,6.1,1.1,8.6,1.1C518.2,374,520.1,373.8,522,373.5L522,373.5z M501.3,348.3
	c2.1-17.4,4.1-30.2,6.2-38.2c-5.4,7.3-8.7,11.9-10,13.8L481,348.3c3.5,0.1,8.5,0.2,15.1,0.2C497.7,348.5,499.4,348.4,501.3,348.3
	L501.3,348.3z M550.6,346c2.2-1.6,4.9-4.4,8.2-8.4c6.2-7.6,10.9-12.5,14.2-14.7c3.3-2.2,6.6-3.3,9.7-3.3c3.7,0,5.5,1.4,5.5,4.3
	c0,2.8-1.6,4.1-5,4.1l-1.8-0.1c-0.9-0.1-1.7-0.1-2.1-0.1c-2.5,0-5,0.7-7.5,2.2c-2.5,1.4-5.7,4.3-9.7,8.8c-3.8,4.3-6.6,7.1-8.4,8.3
	c5.8,2.8,9.8,5.5,12,8.3c2.2,2.8,5.5,9.7,10,20.7c3.2,7.9,6.3,13.4,9.2,16.6c2.9,3.2,6.5,4.8,10.6,4.8c1.8,0,3.4-0.4,4.9-1.3
	c1.5-0.9,2.2-1.8,2.2-2.8c0-0.5-0.2-1.4-0.7-2.7c-0.4-1.2-0.6-2-0.6-2.6c0-1,0.4-1.8,1.1-2.6c0.7-0.8,1.7-1.2,2.7-1.2
	c1.3,0,2.3,0.5,3.1,1.5c0.8,1,1.3,2.2,1.3,3.8c0,3.2-1.5,6-4.4,8.4c-2.9,2.4-6.6,3.5-11,3.5c-6.5,0-12.3-2.5-17.5-7.4
	c-5.2-5-10.5-15.1-15.9-30.3c-1.5-4.4-2.9-7.6-4.3-9.6c-1.4-2-3.5-3.8-6.5-5.4l-6.4,27.9h-9.7l4.5-17.3c4.2-16.4,6.3-25.7,6.3-27.8
	c0-1-0.5-1.5-1.4-1.5c-1.8,0-5.2,2.6-10.2,7.9l-2-2.3c4.3-4.7,8.6-8.1,12.7-10.2c4.2-2.1,7.2-3.1,9.1-3.1c1.7,0,2.6,0.7,2.6,2
	c0,0.5-0.3,1.9-0.8,4.4L550.6,346L550.6,346z"/>
<path class="st2" d="M526.2,138.9l-1.1,6.5c-2.8,0.2-5.1,0.4-7.2,0.4c-3,0-6.6-0.2-10.8-0.6c-7.1-0.7-11.7-1-13.6-1
	c-3.2,0-8.1,0.5-14.7,1.4c2.4-5.9,4.3-12.1,5.9-18.6c1.2-4.6,2.4-12.6,3.7-23.9c-8.8-0.1-22.5,0.1-41,0.5
	c-19.5,29.6-33.8,48.2-42.9,55.8c-9,7.6-17.7,11.4-25.9,11.4c-4.3,0-7.5-0.8-9.6-2.5c-2.1-1.7-3.2-3.8-3.2-6.4c0-2,0.6-3.7,1.8-5
	c1.2-1.3,2.7-2,4.6-2c1.1,0,2.5,0.2,4.3,0.6c4.6,1.1,7.6,1.7,9.1,1.7c5.1,0,10.7-2.9,16.9-8.7c10-9.4,24.8-29.3,44.3-59.5
	C469,54.7,487,29.8,500.6,14.3c-18.6,1.7-30.2,3.3-34.8,4.9c-6.3,2.1-11.1,5.1-14.2,9.1c-3.2,4.1-4.8,8.2-4.8,12.3
	c0,1.4,0.5,3.3,1.5,5.8c1.1,2.8,1.6,4.9,1.6,6.2c0,1.7-0.7,3.2-2,4.4c-1.3,1.3-2.8,2-4.7,2c-2.6,0-4.7-1-6.2-2.9
	c-1.6-1.9-2.3-4.8-2.3-8.7c0-5.5,1.4-10.8,4.3-16c2.8-5.1,6.9-9.4,12.3-12.9c5.3-3.5,12-6.1,20-8c4.1-1,11.4-1.8,21.8-2.6
	c9-0.7,14.7-1.5,17-2.1c3.6-1,7.1-2.9,10.4-5.8c-2.3,9.4-4,17.6-5,24.6l-9.1,66.1l-5.2,47.3c5.7,1.2,10.7,1.9,15.2,1.9
	C519.4,140,522.6,139.6,526.2,138.9L526.2,138.9z M489.3,94.3c3.7-30.9,7.3-53.5,11-67.7c-9.5,12.9-15.4,21.1-17.7,24.4l-29.1,43.3
	c6.2,0.2,15.1,0.4,26.7,0.4C483.1,94.7,486.1,94.6,489.3,94.3L489.3,94.3z"/>
<path class="st2" d="M576.7,90.3c3.9-2.8,8.7-7.8,14.5-14.9c10.9-13.4,19.3-22.1,25.2-26c5.9-3.9,11.7-5.9,17.2-5.9
	c6.5,0,9.8,2.5,9.8,7.5c0,4.9-2.9,7.3-8.8,7.3l-3.2-0.1c-1.7-0.2-2.9-0.2-3.7-0.2c-4.5,0-8.9,1.3-13.3,3.8
	c-4.4,2.5-10.2,7.7-17.2,15.5c-6.7,7.6-11.7,12.5-14.8,14.8c10.3,4.9,17.4,9.8,21.3,14.7s9.7,17.2,17.6,36.7
	c5.7,14,11.2,23.8,16.4,29.5c5.2,5.7,11.5,8.5,18.8,8.5c3.2,0,6-0.8,8.7-2.3c2.6-1.5,4-3.2,4-5c0-0.9-0.4-2.5-1.3-4.8
	c-0.7-2.1-1.1-3.6-1.1-4.7c0-1.7,0.7-3.2,2-4.7c1.3-1.4,2.9-2.1,4.8-2.1c2.2,0,4.1,0.9,5.5,2.6c1.5,1.7,2.2,4,2.2,6.8
	c0,5.7-2.6,10.7-7.7,14.8c-5.1,4.2-11.6,6.2-19.5,6.2c-11.5,0-21.8-4.4-31-13.2c-9.3-8.8-18.6-26.7-28.2-53.8
	c-2.7-7.8-5.2-13.5-7.6-17.1c-2.4-3.6-6.2-6.8-11.4-9.6l-11.4,49.4H547l8-30.7c7.5-29.1,11.2-45.5,11.2-49.3c0-1.8-0.8-2.6-2.5-2.6
	c-3.2,0-9.2,4.7-18.1,14l-3.5-4c7.6-8.3,15.2-14.4,22.5-18.1c7.4-3.7,12.8-5.5,16.1-5.5c3,0,4.6,1.2,4.6,3.5c0,0.9-0.5,3.4-1.5,7.8
	L576.7,90.3L576.7,90.3z"/>
<path id="строительная_Компания" class="st0" d="M38,403.9c-0.8,0.7-1.6,1.4-2.5,1.9c-0.9,0.5-1.8,1-2.8,1.3
	c-1,0.4-2.1,0.6-3.1,0.8c-1.3,0.2-2.6,0.2-3.9,0.2c-2.3,0-4.5-0.4-6.6-1.3c-2-0.9-3.8-2.1-5.3-3.7c-1.6-1.7-2.8-3.8-3.5-6
	c-1.7-5.3-1.7-10.9-0.1-16.2c0.7-2.2,1.9-4.3,3.5-6c1.5-1.6,3.3-2.9,5.3-3.8c2.2-0.9,4.5-1.3,6.8-1.3c3.1-0.1,6.2,0.6,8.9,2.1
	c0.8,0.4,1.6,0.9,2.4,1.5c0.4,0.4,1,0.6,1.6,0.7c0.4,0,0.8-0.1,1.1-0.3c0.3-0.2,0.5-0.4,0.7-0.7l2.8-3.9c-2.2-2.1-4.7-3.7-7.5-4.8
	c-3.1-1.3-6.5-1.9-9.9-1.8c-3.5,0-7,0.6-10.3,1.9c-3,1.2-5.8,3.1-8,5.4c-2.3,2.4-4.1,5.2-5.3,8.4c-1.3,3.4-1.9,7-1.8,10.7
	c-0.1,3.6,0.5,7.2,1.7,10.6c1.1,3.1,2.8,5.9,5,8.3c2.2,2.4,4.9,4.2,7.8,5.4c3.3,1.3,6.8,2,10.3,2c3.8,0.1,7.5-0.6,11-2.1
	c3-1.3,5.7-3.3,7.8-5.9l-3.4-3.6c-0.3-0.3-0.7-0.5-1.2-0.5C38.9,403.3,38.4,403.5,38,403.9L38,403.9L38,403.9L38,403.9z M86.9,363.1
	H46.2v7h16.2v44.6h8.4v-44.6h16.1L86.9,363.1L86.9,363.1L86.9,363.1z M102.5,389.4v-19.7h7.7c1.7,0,3.4,0.2,5,0.7
	c1.3,0.4,2.5,1,3.5,1.9c0.9,0.8,1.6,1.9,2.1,3.1c0.5,1.3,0.8,2.7,0.7,4.1c0,1.4-0.2,2.8-0.7,4.2c-0.4,1.2-1.2,2.3-2.1,3.2
	c-1,0.9-2.2,1.6-3.5,2c-1.6,0.5-3.3,0.7-5,0.7L102.5,389.4L102.5,389.4z M94.1,363.1v51.6h8.4v-18.7h7.7c2.9,0.1,5.8-0.4,8.6-1.2
	c2.3-0.7,4.4-1.9,6.2-3.4c1.6-1.4,2.9-3.2,3.7-5.3c0.9-2.1,1.3-4.4,1.3-6.8c0-2.3-0.4-4.5-1.2-6.6c-0.8-2-2-3.7-3.7-5.1
	c-1.8-1.5-3.9-2.6-6.1-3.3c-2.9-0.8-5.8-1.2-8.8-1.2L94.1,363.1L94.1,363.1z M184.8,378.4c-1.2-3.1-3-5.9-5.3-8.4
	c-2.3-2.4-5.1-4.2-8.2-5.5c-6.8-2.6-14.3-2.6-21.1,0c-3.1,1.3-5.8,3.1-8.1,5.5c-2.3,2.4-4.2,5.2-5.3,8.4c-2.4,6.8-2.4,14.3,0,21.1
	c1.2,3.1,3,6,5.3,8.3c2.3,2.4,5.1,4.2,8.1,5.5c6.8,2.6,14.3,2.6,21.1,0c3.1-1.2,5.9-3.1,8.2-5.5c2.3-2.4,4.1-5.2,5.3-8.3
	C187.2,392.7,187.2,385.2,184.8,378.4L184.8,378.4z M176.8,397c-0.7,2.2-1.9,4.3-3.4,6c-1.5,1.6-3.4,2.9-5.4,3.8
	c-2.3,0.9-4.7,1.3-7.2,1.3c-2.4,0-4.9-0.4-7.1-1.3c-2.1-0.8-3.9-2.1-5.4-3.8c-1.6-1.7-2.8-3.8-3.5-6c-1.6-5.2-1.6-10.8,0-16
	c0.8-2.2,2-4.3,3.5-6c1.5-1.7,3.4-3,5.4-3.8c2.3-0.9,4.7-1.4,7.1-1.3c2.5,0,4.9,0.4,7.2,1.3c2.1,0.9,3.9,2.2,5.4,3.8
	c1.5,1.8,2.7,3.8,3.4,6C178.4,386.2,178.4,391.8,176.8,397z M232.4,363.1c-0.4,0-0.8,0.1-1.2,0.2c-0.4,0.2-0.7,0.4-1,0.6
	c-0.3,0.3-0.6,0.5-0.9,0.8c-0.2,0.3-0.4,0.6-0.6,0.9l-21.9,33c-0.5,0.8-1,1.7-1.5,2.8c-0.5,1.1-1,2.2-1.4,3.4c0.2-1.4,0.3-2.7,0.4-4
	c0.1-1.3,0.1-2.4,0.1-3.6v-34.2h-8.4v51.6h6.3c0.4,0,0.8-0.1,1.2-0.2c0.4-0.2,0.7-0.4,1-0.6c0.3-0.3,0.6-0.5,0.9-0.9
	c0.2-0.3,0.4-0.6,0.6-0.9l21.9-33c0.6-0.9,1.1-1.9,1.5-2.8c0.6-1.1,1.1-2.3,1.5-3.5c-0.2,1.4-0.3,2.8-0.4,4
	c-0.1,1.2-0.1,2.4-0.1,3.6v34.3h8.4v-51.6L232.4,363.1L232.4,363.1L232.4,363.1z M286.6,363.1h-40.7v7h16.1v44.6h8.4v-44.6h16.2
	V363.1L286.6,363.1z M302.2,408V392h19.1v-6.6h-19.1v-15.6h23.8v-6.8h-32.3v51.6h32.3l0.1-6.8L302.2,408L302.2,408z M375.7,363.1
	h-31.9c-0.2,6.9-0.6,12.8-1,17.7c-0.4,4.9-1,9-1.6,12.4c-0.5,2.7-1.2,5.4-2.1,8c-0.6,1.6-1.4,3.2-2.4,4.6c-0.7,0.9-1.6,1.6-2.6,2.1
	c-0.9,0.3-1.8,0.5-2.7,0.5h-2.6v5.3c0,1.1,1.5,1.6,4.5,1.6c1.5,0,3.1-0.2,4.5-0.6c1.5-0.5,2.9-1.3,4.1-2.4c1.4-1.5,2.6-3.1,3.4-5
	c1.2-2.6,2.2-5.4,2.8-8.2c0.9-4,1.6-8.1,2.1-12.3c0.6-4.8,1-10.5,1.4-17h15.5v45.1h8.4V363.1L375.7,363.1z M396.5,408.1v-16.6h9.2
	c1.6,0,3.3,0.2,4.8,0.6c1.2,0.3,2.3,0.9,3.2,1.6c0.8,0.7,1.4,1.6,1.8,2.6c0.4,1.1,0.6,2.3,0.5,3.5c0,1.1-0.2,2.3-0.6,3.3
	c-0.3,1-1,1.9-1.8,2.7c-0.9,0.8-2,1.4-3.2,1.8c-1.5,0.4-3.2,0.7-4.8,0.6L396.5,408.1L396.5,408.1z M396.5,384.9v-21.7H388v51.6h17.6
	c2.7,0,5.3-0.3,7.9-1.1c2.1-0.6,4.1-1.7,5.8-3.2c1.6-1.4,2.8-3.1,3.7-5c0.8-2.1,1.2-4.3,1.2-6.5c0-1.9-0.3-3.8-1-5.6
	c-0.7-1.7-1.9-3.3-3.4-4.5c-1.7-1.3-3.7-2.4-5.7-3c-2.7-0.8-5.6-1.1-8.4-1.1L396.5,384.9L396.5,384.9L396.5,384.9z M466.6,363.1
	v22.6h-26v-22.6h-8.4v51.6h8.4v-23h26v23h8.4v-51.6L466.6,363.1L466.6,363.1z M496.9,395.4l7.1-18.8c0.3-0.7,0.6-1.5,0.9-2.5
	c0.3-0.9,0.5-2,0.9-3.1c0.2,1.1,0.5,2.1,0.9,3.1c0.3,0.9,0.6,1.8,0.9,2.5l7.2,18.9L496.9,395.4L496.9,395.4L496.9,395.4z M510,363.1
	h-8.6l-20.5,51.6h6.6c0.6,0,1.2-0.2,1.7-0.6c0.5-0.3,0.8-0.8,1-1.3l4.3-11.4h22.4l4.3,11.4c0.2,0.5,0.6,1,1,1.4
	c0.5,0.4,1.1,0.6,1.8,0.6h6.5L510,363.1z M554.7,386.4c-1.6,0-3.3-0.2-4.8-0.6c-1.2-0.3-2.2-0.9-3.2-1.7c-0.8-0.7-1.4-1.6-1.8-2.6
	c-0.4-1.1-0.6-2.3-0.5-3.5c0-1.1,0.2-2.2,0.5-3.3c0.4-1,1-1.9,1.8-2.6c0.9-0.8,2-1.4,3.2-1.7c1.6-0.4,3.2-0.6,4.8-0.6h9.4v16.6
	L554.7,386.4L554.7,386.4z M572.5,363.1h-17.8c-2.7,0-5.3,0.3-7.9,1.1c-2.1,0.6-4.1,1.7-5.9,3.1c-1.6,1.3-2.8,2.9-3.6,4.7
	c-0.9,1.9-1.3,4-1.2,6.1c0,1.6,0.2,3.1,0.7,4.6c0.5,1.4,1.2,2.8,2.2,3.9c1,1.2,2.3,2.2,3.7,3c1.6,0.9,3.4,1.6,5.2,1.9
	c-2.2,1-4,2.7-5.3,4.7L530,414.8h6.3c1.1,0,2.2-0.2,3.1-0.8c0.9-0.5,1.6-1.3,2.1-2.2l10.1-15.1c0.5-0.6,1-1.3,1.5-1.8
	c0.4-0.4,0.9-0.8,1.5-1.1c0.5-0.3,1-0.4,1.6-0.6c0.6-0.1,1.2-0.2,1.8-0.2h6.1v21.7h8.4L572.5,363.1L572.5,363.1z M630.8,392.8
	c-0.7-1.3-1.6-2.4-2.7-3.4c-1-0.8-2.2-1.4-3.4-1.7c0.9-0.3,1.8-0.8,2.6-1.4c0.8-0.6,1.5-1.4,2-2.2l14.8-20.9H637
	c-0.8,0-1.5,0.2-2.1,0.6c-0.6,0.5-1.1,1-1.5,1.7l-12.4,17.4c-0.5,0.8-1.3,1.5-2.1,1.9c-0.8,0.4-1.7,0.5-2.6,0.5h-5.1v-22.1h-8.4
	v51.6h8.4v-23.1h6c0.5,0,1.1,0,1.6,0.1c0.5,0.1,0.9,0.2,1.3,0.4c0.4,0.2,0.8,0.5,1,0.8c0.4,0.4,0.7,0.8,1,1.2l12.2,18
	c0.4,0.7,0.9,1.4,1.5,1.9c0.6,0.4,1.3,0.7,2.1,0.6h7.6L630.8,392.8z M696.4,378.4c-2.3-6.3-7.2-11.3-13.4-13.8
	c-6.8-2.6-14.3-2.6-21.1,0c-3.1,1.3-5.9,3.1-8.2,5.5c-2.3,2.4-4.1,5.3-5.3,8.4c-2.4,6.8-2.4,14.3,0,21.1c1.2,3.1,3,5.9,5.3,8.3
	c2.3,2.4,5.1,4.2,8.2,5.5c6.8,2.6,14.3,2.6,21.1,0c6.2-2.5,11.1-7.5,13.4-13.8C698.9,392.7,698.9,385.2,696.4,378.4L696.4,378.4z
	 M688.4,397c-0.7,2.2-1.9,4.3-3.4,6c-1.5,1.6-3.4,2.9-5.4,3.8c-4.6,1.7-9.7,1.7-14.4,0c-2.1-0.8-3.9-2.1-5.4-3.8
	c-1.6-1.7-2.8-3.8-3.5-6c-1.6-5.2-1.6-10.8,0-16c0.7-2.2,1.9-4.3,3.5-6c1.5-1.7,3.4-3,5.4-3.8c4.6-1.8,9.7-1.8,14.4,0
	c2.1,0.9,3.9,2.1,5.4,3.8c1.5,1.8,2.7,3.8,3.4,6C690,386.2,690,391.8,688.4,397L688.4,397z M756.2,363.1c-0.6,0-1.2,0-1.7,0.2
	c-0.5,0.2-0.9,0.7-1.1,1.2l-16.4,30c-0.4,0.7-0.7,1.4-1,2.2c-0.4,0.8-0.6,1.5-0.9,2.3c-0.2-0.8-0.5-1.5-0.9-2.2
	c-0.3-0.7-0.7-1.4-1-2.1l-16.6-30c-0.2-0.5-0.6-1-1.2-1.2c-0.6-0.2-1.1-0.2-1.7-0.2h-6.3v51.6h7.4v-35.4c0-0.6,0-1.2-0.1-1.9
	c-0.1-0.7-0.1-1.4-0.1-2.1l16.9,30.7c0.5,1.2,1.7,1.9,3,1.9h1.2c1.3,0,2.5-0.7,3-1.9l16.7-30.6c-0.1,0.7-0.1,1.4-0.2,2.1
	c-0.1,0.7-0.1,1.3-0.1,1.9v35.4h7.4v-51.6L756.2,363.1L756.2,363.1L756.2,363.1z M815.7,363.1h-40.9v51.6h8.5v-45.1h24v45.1h8.4
	L815.7,363.1L815.7,363.1L815.7,363.1z M837.6,395.4l7.1-18.8c0.3-0.7,0.6-1.5,0.9-2.5c0.3-0.9,0.5-2,0.8-3.1
	c0.3,1.1,0.6,2.1,0.9,3.1c0.3,0.9,0.6,1.8,0.9,2.5l7.2,18.9L837.6,395.4L837.6,395.4z M850.7,363.1h-8.5l-20.5,51.6h6.5
	c0.7,0,1.3-0.2,1.8-0.6c0.4-0.4,0.8-0.8,1-1.3l4.3-11.4h22.3l4.3,11.4c0.2,0.6,0.6,1,1,1.4c0.5,0.4,1.1,0.6,1.8,0.6h6.5L850.7,363.1
	z M911.6,363.1v22.6h-26v-22.6h-8.5v51.6h8.5v-23h26v23h8.4v-51.6L911.6,363.1L911.6,363.1z M968.9,363.1c-0.4,0-0.8,0.1-1.2,0.2
	c-0.4,0.2-0.7,0.4-1,0.6c-0.3,0.3-0.6,0.5-0.9,0.8c-0.2,0.3-0.4,0.6-0.6,0.9l-21.9,33c-0.5,0.8-1,1.7-1.5,2.8
	c-0.5,1.1-1,2.2-1.4,3.4c0.2-1.4,0.3-2.7,0.4-4c0.1-1.3,0.1-2.4,0.1-3.6v-34.2h-8.4v51.6h6.3c0.4,0,0.8-0.1,1.2-0.2
	c0.4-0.2,0.7-0.4,1-0.6c0.3-0.3,0.6-0.5,0.9-0.9c0.2-0.3,0.4-0.6,0.7-0.9l21.9-33c0.6-0.9,1.1-1.8,1.5-2.8c0.6-1.1,1.1-2.3,1.5-3.5
	c-0.2,1.4-0.3,2.8-0.4,4c-0.1,1.2-0.1,2.4-0.1,3.6v34.3h8.4v-51.6L968.9,363.1L968.9,363.1L968.9,363.1z M1005.7,386.4
	c-1.6,0-3.3-0.2-4.8-0.6c-1.2-0.3-2.2-0.9-3.2-1.7c-0.8-0.7-1.4-1.6-1.8-2.6c-0.4-1.1-0.6-2.3-0.5-3.5c0-1.1,0.2-2.2,0.5-3.3
	c0.4-1,1-1.9,1.8-2.6c0.9-0.8,2-1.4,3.2-1.7c1.6-0.4,3.2-0.6,4.8-0.6h9.4v16.6L1005.7,386.4L1005.7,386.4z M1023.6,363.1h-17.8
	c-2.7,0-5.3,0.3-7.9,1.1c-2.1,0.6-4.1,1.7-5.8,3.1c-1.6,1.3-2.8,2.9-3.7,4.7c-0.8,1.9-1.2,4-1.2,6.1c0,1.6,0.2,3.1,0.7,4.6
	c0.5,1.4,1.2,2.8,2.1,3.9c1,1.2,2.3,2.2,3.7,3c1.6,0.9,3.4,1.5,5.2,1.9c-2.2,1-4,2.7-5.3,4.7L981,414.8h6.3c1.1,0,2.2-0.2,3.2-0.8
	c0.9-0.5,1.6-1.3,2.1-2.2l10.1-15.1c0.4-0.7,0.9-1.3,1.5-1.8c0.4-0.5,1-0.8,1.5-1.1c0.5-0.3,1-0.4,1.6-0.6c0.6-0.1,1.1-0.2,1.7-0.2
	h6.1v21.7h8.4L1023.6,363.1L1023.6,363.1L1023.6,363.1z"/>
</svg>
