<svg xmlns="http://www.w3.org/2000/svg" viewBox="0 0 748.6 137.3"><path fill="#14C966" d="M.3 121.9L112.9 15.8H0zM10.7 123.6h24.1L149.3 15.8h-24.1z"/><path fill="#1A5432" d="M159.1 41.4V61H148.2l-18.5 17.7h29.5V88.1h16.9V15.8h-14.6L47.7 123.6h24.1l86.1-81.1zM248.8 67.9l-.2-1-.2-1-.3-1-.4-1-.4-1-.5-1-.5-1-.7-.9-.7-1-.7-.9-.9-.9-.9-.8-1-.9-1.1-.8-.7-.4.6-.6.8-1 .7-1 .8-1 .6-1 .6-1 .5-1 .5-1.1.5-1 .4-1.1.3-1 .3-1.1.2-1 .2-1.1.1-1 .1-1v-2.7l-.2-1.7-.4-1.6-.5-1.7-.6-1.5-.8-1.5-.9-1.5-1-1.5-1.2-1.3-1.4-1.3-1.5-1.3-1.7-1.1-1.7-1.1-2-1-1-.5-1-.4-1.2-.4-1-.4h-21.2L189.2 33v55h14.9l.1-54v-.7H228.8l.2.1.7.4.7.4.6.5.4.6.4.6.4.6.1.7.1.6-.1.7-.1.6-.3.6-.4.6-.5.5-.6.5-.7.5-.8.4h-17.7v17.9l17.3-.1H228.8l.5.2.5.3 1 .5.8.6.4.3.3.4.3.4.3.4.2.4.1.4.2.4.1.4.1.5v.4l-.1.8-.2.9-.4.7-.3.4-.3.3-.3.4-.4.3-.4.2-.4.3-.5.3-.5.2-.5.2-.6.2h-17.5l-.1 17.4H234l1.6-.5 1.7-.6 1.4-.7 1.4-.9 1.4-.9 1.2-1.1 1.1-1 1.1-1.2.9-1.3.8-1.3.6-1.4.6-1.4.5-1.4.3-1.5.2-1.5.1-1.5-.1-1zM258.3 36v52.1h17.2V34.8H297L316 16h-37.2zM364.9 16l-21.1 19.9-.5.4-.5-.5-18.7-19.5-11.7 11.4 18.2 18.8.5.5-.5.5-20.4 19v24l33-30.9L389.1 16zM693.2 41.4v18.9l.1.8h-11l-18.4 17.6h29.5v.8l-.1 8.6h16.9V15.8h-14.5l-56 53v23l52.4-49.3z"/><path fill="#14C966" d="M639.4 15.8v43.7l45.8-43.7z"/><path fill="#1A5432" d="M474.8 35.5v-.7h6L499.7 16h-39.2L441 35h17.9v.7l-.1 52.4h16zM543 44.1v1.7l.3 42.6 19.5-.2V16h-16.2l-31.3 30.1-1.2 1.2v-1.7l-.1-28.7-17.9 17v53.6l45.7-42.2zM614.4 45.6v.7h-25.2V17l-18 16.9v54.6h18.6V63.1h24.8l-.1.8v24.3h17.2l.1-72.2h-17.2z"/><path fill="#1A5432" d="M408.4 87l1.8.4 1.9.4 1.9.3 2.1.3 2 .1H422l1.8-.1 1.9-.2 1.3-.1V73.2h-.3l-1.2.1-1.1.1H422l-1.2-.1-1.3-.1-1.2-.2-1.1-.3-1.1-.3-1.1-.3-1-.4-1-.4-1-.5-.9-.5-.9-.5-.8-.6-.8-.6-.8-.7-.7-.6-.7-.8-.6-.7-.6-.7-.6-.8-.5-.8-.4-.9-.4-.8-.4-.9-.4-.8-.3-.9-.2-.9-.2-1-.2-.9-.1-.9-.1-.9v-1.8l.1-.9.1-.9.2-.9.2-.9.2-.9.3-.8.4-.9.4-.8.4-.8.4-.8.6-.8.5-.7.6-.8.7-.7.7-.7.7-.7.8-.6.8-.6 1-.5.9-.5 1-.6 1-.4 1.1-.4 1.1-.3 1.2-.4 1.2-.3 1.3-.2 1.3-.2 1.4-.1 1.4-.1h1.5l1.8.1 1.5.1 18.6-18.1h-9.2l-2.8-.1h-4.6l-1.9.1h-1.9l-1.8.1h-1.7l-1.7.1-1.7.1-1.6.1-1.5.2-1.6.2-1.5.3-1.4.3-1.4.3-1.4.4-1.4.4-1.3.5-1.5.6-1.4.6-1.4.7-1.3.7-1.3.7-1.2.8-1.2.8-1.1.8-1.1.9-1 .8-1 .9-.9.9-.8 1-.9 1-.8 1-.7 1-.7 1.1-.6 1.1-.6 1-.5 1.2-.5 1.1-.5 1.1-.4 1.2-.3 1.2-.4 1.2-.3 1.2-.2 1.3-.2 1.2-.1 1.2-.1 1.3-.1 2.5.1 2.2.1 2.2.2 1.5.2 1.6.4 1.5.3 1.5.5 1.6.5 1.5.5 1.5.6 1.4.7 1.4.7 1.4.8 1.3.9 1.4.9 1.2 1 1.3 1 1.2 1.1 1.1 1.2 1.1 1.2 1.1 1.3 1 1.4.9 1.4.9 1.5.8 1.6.7 1.6.7 1.7.6z"/><g fill="#E21B14"><path d="M141.9 120.9h-6.3v-4.4h17.7v4.4H147v16.4h-5.1v-16.4zM193.4 116.2c6.3 0 10.8 4.6 10.8 10.6 0 6.1-4.6 10.8-10.8 10.8s-10.8-4.8-10.8-10.8c0-6 4.6-10.6 10.8-10.6zm0 16.8c3.1 0 5.6-2.7 5.6-6.2 0-3.4-2.5-5.9-5.6-5.9s-5.6 2.6-5.6 5.9c0 3.5 2.5 6.2 5.6 6.2zM235.5 116.5h8.6c4 0 6.8 3 6.8 7.1s-2.7 7.2-6.8 7.2h-3.5v6.4h-5.1v-20.7zm7.5 10c1.8 0 2.6-1.2 2.6-2.8s-.9-2.8-2.6-2.8h-2.6v5.6h2.6zM281.5 116.5h12.7v4.4h-7.6v16.4h-5.1v-20.8zM334.3 116.2c6.3 0 10.8 4.6 10.8 10.6 0 6.1-4.6 10.8-10.8 10.8s-10.8-4.8-10.8-10.8c0-6 4.6-10.6 10.8-10.6zm0 16.8c3.1 0 5.6-2.7 5.6-6.2 0-3.4-2.5-5.9-5.6-5.9-3.1 0-5.6 2.6-5.6 5.9 0 3.5 2.5 6.2 5.6 6.2zM376.4 116.5h7.6c4.1 0 7 1.9 7 5.4 0 1.7-.8 3.5-2.4 4.4v.1c2.4.7 3.2 2.8 3.2 4.7 0 4.5-3.8 6.2-7.9 6.2h-7.6v-20.8zm7.6 8.1c1.3 0 1.8-.9 1.8-1.9 0-1-.6-1.8-1.9-1.8h-2.5v3.7h2.6zm.5 8.3c1.5 0 2.2-1 2.2-2.2s-.7-2.1-2.2-2.1h-3.1v4.3h3.1zM428 116.5h5.3l7 20.7h-5.2l-1.3-4.4h-6.5l-1.2 4.4h-5.2l7.1-20.7zm4.7 12.4l-1.2-4c-.4-1.3-.8-3.6-.8-3.6h-.1s-.5 2.3-.8 3.6l-1.2 4h4.1zM473.7 130.6c.6-1 .8-1.2.8-1.2v-.1c-2.3-1.3-3.3-3.7-3.3-6.1 0-3.2 1.6-5.3 3.8-6.1.9-.3 1.9-.5 4-.5h7.2v20.7h-5.1v-7h-1.9l-3.9 7h-5.7l4.1-6.7zm7.5-4.5v-5.2h-1.7c-1.2 0-2 .2-2.4.6-.5.4-.7 1.2-.7 1.9 0 1.9 1 2.7 2.6 2.7h2.2zM564.5 116.2c2.8 0 5.7.9 7.8 2.9l-2.3 3.8c-1.3-1.2-3.3-2.1-5.2-2.1-4.1 0-5.9 2.9-5.9 5.9 0 3.1 1.9 6.2 5.9 6.2 2.1 0 4.1-1.1 5.5-2.6l2.6 3.7c-1.8 1.9-4.6 3.5-8.4 3.5-6.7 0-10.9-4.6-10.9-10.8 0-5.9 4.4-10.5 10.9-10.5zM603.4 116.5h13v4.4h-7.9v3.8h6.3v4.4h-6.3v3.9h8.3v4.4h-13.4v-20.9zM652.9 120.9h-6.3v-4.4h17.7v4.4H658v16.4h-5.1v-16.4zM694.9 116.5h5.1v6.4h3.5c4 0 6.8 3 6.8 7.2s-2.7 7.1-6.8 7.1h-8.6v-20.7zm7.6 16.4c1.7 0 2.6-1.1 2.6-2.8s-.9-2.8-2.6-2.8H700v5.6h2.5z"/></g><path fill="#1A5432" d="M735 5.2c.8-.1 1.9-.2 3-.2 1.6 0 2.7.3 3.4.9.6.5.9 1.3.9 2.2 0 1.4-1 2.4-2 2.8.8.3 1.3 1.1 1.5 2.1.3 1.4.6 2.6.9 3.1h-2.1c-.2-.3-.4-1.2-.7-2.6-.3-1.4-.8-1.9-2-1.9h-1V16h-2V5.2zm2 4.9h1.2c1.4 0 2.2-.7 2.2-1.8 0-1.2-.8-1.8-2.2-1.8-.6 0-1 0-1.2.1v3.5z"/><path fill="#1A5432" d="M738.1 21c-5.8 0-10.5-4.7-10.5-10.5S732.3 0 738.1 0s10.5 4.7 10.5 10.5S743.9 21 738.1 21zm0-19.4c-4.9 0-8.9 4-8.9 8.9s4 8.9 8.9 8.9 8.9-4 8.9-8.9-3.9-8.9-8.9-8.9z"/></svg>