<?xml version="1.0" encoding="utf-8"?>
<!-- Generator: Adobe Illustrator 22.1.0, SVG Export Plug-In . SVG Version: 6.00 Build 0)  -->
<svg version="1.1" id="Слой_1" xmlns="http://www.w3.org/2000/svg" xmlns:xlink="http://www.w3.org/1999/xlink" x="0px" y="0px"
	 viewBox="0 0 3558 1976" style="enable-background:new 0 0 3558 1976;" xml:space="preserve">
<style type="text/css">
	.st0{stroke:#388C35;stroke-miterlimit:10;}
	.st1{fill:none;stroke:#FFFFFF;stroke-miterlimit:10;}
	.st2{fill:#FFFFFF;stroke:#388C35;stroke-miterlimit:10;}
	.st3{fill:#EDEDED;stroke:#000000;stroke-linecap:round;stroke-miterlimit:10;}
</style>
<g id="Слой_x0020_1">
	<g>
		<path class="st0" d="M2592.4,1022.9v-49.4h-124.9c30.2-133.2,52.2-226.5,9.6-369.3c-23.3-79.6-48-119.4-90.6-183.9
			c-30.2-45.3-90.6-111.2-133.2-145.5c-101.6-79.6-232-145.5-350-204.5L1779.6,5.8c-15.1-4.1-70,32.9-87.9,42.6l-181.1,93.2
			c-159.2,87.9-264.9,141.4-374.7,321.2c-42.6,68.7-85.2,175.8-85.2,285.6c0,53.5,0,76.9,9.6,131.8c5.5,26.1,13.7,74.1,23.3,93.3
			H967v49.4h183.9c-1.4-15.1-26.1-81-34.3-120.8c-38.4-194.9,0-361,126.3-502.4c15.1-17.8,23.3-27.5,39.8-43.9
			c16.5-17.8,28.8-26.1,45.3-42.6c13.7-11,32.9-24.7,48-35.7c17.8-11,31.6-22,50.8-32.9c89.2-52.2,183.9-100.2,277.3-146.9
			c92-45.3,37.1-52.2,167.5,12.4c116.7,59,306.1,153.7,394,243c11,9.6,12.4,15.1,20.6,24.7c28.8,32.9,52.2,59,75.5,96.1
			c83.7,131.8,105.7,286.9,67.3,440.6c-6.9,30.2-20.6,83.7-32.9,108.4L2592.4,1022.9L2592.4,1022.9z"/>
		<path class="st0" d="M1779.7,935c24.7,0,63.1-17.8,79.6-28.8c-1.4-34.3-11-13.7,6.9-67.3c35.7-105.7,30.2-59,145.5-105.7
			c42.6-16.5,65.9-39.8,92-74.1c93.3-126.3,60.4-332.2-199-332.2c-68.6,0-141.4,35.7-194.9,68.6c-19.4,11.1-34.5,22.1-34.5,52.3
			c0,15.1,11,24.7,20.6,24.7c13.7,0,24.7-20.6,31.6-30.2c60.4-83.7,339.1-60.4,339.1,76.9v20.6c0,74.1-87.9,178.4-153.7,183.9
			c1.4-17.8,13.7-48,19.2-64.5c8.2-23.3,89.2-227.9,43.9-227.9c-30.2,0-109.8,222.4-123.5,256.7c-22,57.7-15.1,38.4-60.4,68.6
			c23.3,42.6,24.7,28.8-6.9,109.8C1779.7,880.1,1756.4,935,1779.7,935z"/>
		<path class="st0" d="M1829,1436.1c0,19.2,0,32.9,22,32.9c28.8,0,12.4-79.6,182.6-79.6c86.5,0,188.1,41.2,188.1,141.4
			c0,75.5-87.9,186.7-159.2,188.1l68.6-194.9c5.5-23.3,11-52.2,11-79.6c0-9.6-2.7-9.6-8.2-17.8c-27.5,2.7-39.8,41.2-53.5,72.8
			l-74.1,183.9c-23.3,59-13.7,37.1-60.4,68.6c9.6,34.3,34.3,9.6-1.4,97.5c-23.3,56.3-26.1,53.5-19.2,82.4
			c34.3,0,67.3-15.1,87.9-30.2c-2.7-38.4-11-12.4,12.4-83.7c28.8-89.2,56.3-46.7,153.7-94.7c173-85.1,190.8-399.5-108.4-399.5
			C1986.9,1323.5,1829,1385.3,1829,1436.1z"/>
		<path class="st0" d="M1284.1,615.2c0,11,13.7,20.6,24.7,19.2c9.6-1.4,17.8-11,30.2-17.8c54.9-31.6,374.7-86.5,345.9,11
			c-13.7,48-94.7,76.9-113.9,104.3c-42.6,65.9,129-15.1,129,82.4c0,104.3-199,111.2-199,38.4c0-34.3,175.7-267.7,103-267.7
			c-20.6,0-57.7,37.1-68.6,52.2c-22,28.8-118.1,236.1-118.1,256.7c0,74.1,226.5,67.3,329.4-37.1c13.7-12.4,26.1-22,34.3-41.2
			c24.7-63.1-31.6-105.7-118.1-105.7c27.5-39.8,104.3-53.5,104.3-137.3c0-52.2-85.1-74.1-141.4-74.1c-129,0-211.4,39.8-310.2,89.2
			C1304.7,593.3,1284.1,602.9,1284.1,615.2z"/>
		<path class="st0" d="M0.6,1440.2c0,11,13.7,20.6,24.7,19.2s16.5-9.6,27.5-16.5c53.5-31.6,376.1-87.9,348.7,9.6
			c-12.4,45.3-100.2,81-113.9,104.3c-16.5,24.7-2.7,28.8,30.2,28.8c57.7-1.4,98.8,5.5,98.8,53.5c0,103-199,111.2-199,38.4
			c0-22,50.8-98.8,63.1-119.4c122.2-205.9,15.1-155.1-28.8-96.1c-22,28.8-118.1,234.7-118.1,256.7c0,72.8,225.1,70,330.8-37.1
			c23.3-24.7,56.3-53.5,28.8-101.6c-17.8-32.9-63.1-45.3-113.9-45.3c15.1-22,48-31.6,76.9-68.6c115.3-148.3-144.1-192.2-387.1-74.1
			C56.9,1399,0.6,1426.5,0.6,1440.2z"/>
		<path class="st0" d="M967,1059.9h245.7l-50.8-127.7c-53.5-185.3-17.8-343.2,98.8-491.4c60.4-76.9,162-149.6,248.5-192.2
			c24.7-12.4,253.9-137.3,267.7-134.5l264.9,134.5c60.4,34.3,168.8,97.5,210,152.4c8.2,9.6,12.4,12.4,20.6,20.6
			c12.4,12.4,24.7,30.2,35.7,43.9c12.4,16.5,22,31.6,32.9,50.8c78.2,131.8,85.1,258.1,49.4,404.9c-9.6,35.7-39.8,122.2-39.8,138.6
			h241.6v-24.7h-208.6c24.7-104.3,53.5-124.9,53.5-278.7c0-232-167.5-403.6-328.1-499.7l-328.1-173c-12.4-2.7-82.4,38.4-107.1,50.8
			c-38.4,19.2-74.1,35.7-111.2,54.9c-164.7,82.4-270.4,149.6-367.9,297.9c-38.3,57.9-82.2,159.5-82.2,252.8
			c0,78.2,5.5,174.3,38.4,241.6c5.5,11,19.2,39.8,20.6,53.5c-35.7,0-72.8,0-108.4,0C969.8,1035.2,967,1014.6,967,1059.9z"/>
		<path class="st0" d="M2644.4,1753.2c35.7,17.8,37.1,28.8,101.6-13.7c19.2-12.4,35.7-24.7,49.4-41.2c0,75.5,38.4,53.5,85.1,37.1
			c79.6-26.1,61.8-30.2,98.8-53.5c0,17.8,1.4,30.2,4.1,45.3c4.1,38.4,8.2,32.9,32.9,34.3c74.1,4.1,12.4,17.8,56.3-133.2
			c20.6-72.8,38.4-105.7-15.1-120.8c-20.6-5.5-31.6-5.5-52.2,0c-57.7,13.7-149.6,82.4-179.8,131.8c-8.2,13.7-17.8,24.7-20.6,42.6
			l-4.1-17.8c-26.1,1.4-22,6.9-50.8,24.7c-101.6,61.8-2.7-135.9,4.1-153.7c11-23.3,54.9-118.1,54.9-137.3
			c0-32.9-93.3,19.2-97.5,23.3c-13.7,15.1,1.4,31.6-24.7,96.1c-12.4,31.6-24.7,57.7-37.1,85.1c-10.8,23.2-28.6,63-28.6,96
			C2621.1,1743.6,2617,1739.5,2644.4,1753.2z"/>
		<path class="st0" d="M2887.4,1698.3c60.4-13.8,179.8-155.1,137.2-155.1c-17.8,0-72.7,49.4-83.7,61.8
			C2921.7,1629.7,2888.8,1658.5,2887.4,1698.3z"/>
		<path class="st0" d="M846.2,1981c64.5,0,90.6-16.5,129-79.6c49.4-82.4,78.2-162,113.9-252.6l39.8-97.5
			c4.1-13.7,8.2-26.1,13.7-37.1c-54.9-35.7-101.6,38.4-134.5,86.5c-20.6,30.2-20.6,42.6-37.1,46.7l5.5-74.1
			c4.1-42.6,28.8-87.9-13.7-87.9c-9.6,0-41.2,24.7-46.7,32.9c-9.5,13.9-15,44.1-15,67.4c0,61.8-5.5,97.5,8.2,153.7
			c83.7,20.6,74.1-74.1,120.8-108.4l-68.6,186.7c-13.7,28.8-30.2,56.3-54.9,74.1c-39.8,31.6-79.6,6.9-97.5,5.5
			C785.8,1946.7,816,1981,846.2,1981z"/>
		<path class="st0" d="M542.9,1714.8c0,17.8,15.1,41.2,32.9,41.2c22,0,49.4-15.1,68.6-23.3c46.7-19.2,34.3-19.2,52.2-38.4v32.9
			c9.6,6.9,11,8.2,23.3,13.7c9.6,5.5,16.5,9.6,23.3,13.7c31.6,16.5,135.9-56.3,135.9-90.6c0-8.2-2.7-8.2-8.2-16.5
			c-11,4.1-171.6,144.1-42.6-122.2c19.2-41.2,103-190.8,19.2-151c-108.4,50.8-19.2-13.7-118.1,207.3
			c-10.9,24.7-32.8,65.9-32.8,100.2c-31.6-15.1-27.5,12.4-54.9,12.4c-57.7,0,45.3-134.5,34.3-183.9c-24.7,0-31.6,6.9-60.4,19.2
			c-17.8,8.2-23.3,20.6-34.3,49.4C566.2,1617.3,542.9,1676.4,542.9,1714.8z"/>
		<path class="st1" d="M1286.7,1588.6c-12.3,12.3-68.6,78.2-53.5,93.3c17.8,17.8,94.7-71.4,105.7-82.4c19.2-22,41.2-42.6,41.2-72.8
			c-24.7,1.4-39.8,13.7-53.6,26.2C1310,1566.6,1301.8,1573.5,1286.7,1588.6"/>
		<path class="st0" d="M1138.6,1690c0,63.1,32.9,53.5,93.3,31.6c19.2-6.9,60.4-26.1,75.5-38.4c12.4-11,5.5-9.6,17.8-19.2
			c0,100.2,12.4,83.7,43.9,85.1c48,4.1,31.6,1.4,31.6-46.7c0-107.1,85.1-185.3,5.5-210c-68.6-22-145.5,41.2-193.5,79.6
			C1183.9,1595.3,1138.6,1662.6,1138.6,1690z"/>
		<path class="st0" d="M2383.6,1698.3c45.3-4.1,138.6-108.5,149.6-155.1C2478.3,1543.2,2385,1651.6,2383.6,1698.3z"/>
		<path class="st0" d="M2291.6,1710.6c0,24.7,17.8,39.8,24.7,41.2c23.3-1.4,67.3-17.8,87.9-24.7c53.5-20.6,50.8-32.9,71.4-45.3
			c1.4,50.8,2.7,56.3,20.6,82.4c28.8-6.9,15.1,0,41.2,0s12.4-30.2,12.4-49.4c0-56.3,50.8-164.7,38.4-188.1
			c-11-20.6-65.9-31.6-108.4-12.4c-57.7,26.1-129,75.5-159.2,127.7C2309.5,1661.2,2291.6,1683.2,2291.6,1710.6z"/>
		<path class="st0" d="M967,1077.8v33h20.6v28.8h20.6v104.3c0,9.6,4.1,12.4,13.7,12.4h145.5v-116.7h24.7v-28.8
			c20.6-1.4,20.6,0,20.6-20.6c0-9.6-2.7-12.4-12.4-12.4L967,1077.8L967,1077.8z"/>
		<path class="st0" d="M3433.7,1659.8c39.8,0,76.9-63.1,78.3-90.6c-13.8-8.2-15.1-9.6-31.6,0
			C3455.7,1582.9,3433.7,1631,3433.7,1659.8z"/>
		<path class="st0" d="M3341.7,1685.9c0,63.1,27.5,56.3,79.6,70c37.1,8.2,59,16.5,101.6-2.7c28.8-13.7,23.3-22,23.3-34.3
			c-28.8-6.9-72.8,30.2-104.3-16.5c42.6-11,83.7-49.4,98.8-92c12.4-31.6,17.8-30.2,17.8-63.1c0-57.7-75.5-34.3-105.7-16.5
			c-16.5,9.6-34.3,24.7-49.4,37.1c-15.1,12.4-27.5,31.6-39.8,48C3351.3,1635.1,3341.7,1657.1,3341.7,1685.9z"/>
		<path class="st0" d="M2592.3,1110.8v-32.9h-233.4c-9.6-0.1-12.4,2.7-12.4,12.3v20.6h20.6v28.8h24.7v116.7h153.8v-116.7h26.1v-28.8
			H2592.3z"/>
		<path class="st0" d="M3112.5,1718.9c0,50.8,39.8,49.4,83.7,49.4c42.6,0,133.2-56.3,133.2-94.7v-17.8
			c-32.9,1.4-20.6,17.8-54.9,37.1c-17.8,8.2-46.7,22-70,22c0-28.8,15.1-63.1,26.1-82.4c41.2-67.3,71.4-48,86.5-46.7
			c6.9-9.6,17.8-24.7,13.7-39.8c-2.7-9.6-27.5-27.5-34.3-27.5c-31.6,0-98.8,50.8-120.8,72.8
			C3150.9,1614.5,3112.5,1672.2,3112.5,1718.9z"/>
		<path class="st0" d="M1458.4,1706.5c5.5,23.3,24.7,49.4,50.8,49.4c2.7-12.4,8.2-13.7,15.1-26.1c6.9-9.6,11-17.8,16.5-28.8
			c17.8-46.7,1.4-64.5,56.3-119.4c22-20.6,31.6-34.3,61.8-34.3c15.1,0,23.3,19.2,24.7,34.3c42.6-4.1,20.6-45.3,9.6-71.4
			c-12.4-30.2-56.3-35.7-89.2-1.4c-17.8,17.8-11,16.5-22,32.9l-6.9,9.7c0-71.4-24.7-52.2-38.4-46.7c-8.2,2.7-65.9,15.1-65.9,34.3
			c0,38.4,34.3,16.5,34.3,34.3C1505.1,1680.4,1479,1674.9,1458.4,1706.5z"/>
		<path class="st0" d="M1763.1,1180.8c2.7,9.6,1.4,6.9,8.2,12.4c5.5,4.1,6.9,4.1,12.4,8.2c41.2,28.8,23.3,17.8,8.2,79.6
			c17.8-12.4,35.7-24.7,53.5-37.1c5.5,6.9,13.7,11,20.6,17.8c9.6,6.9,15.1,12.4,26.1,15.1c-1.4-19.2-12.4-38.4-16.5-57.7
			c11-4.1,16.5-9.6,24.7-16.5c9.6-6.9,16.5-11,24.7-17.8c1.4,1.4,2.7,1.4,2.7,2.7c0,2.7,43.9,27.5,43.9,35.7
			c0,13.7-13.7,41.2-17.8,57.7c19.2-12.4,35.7-24.7,54.9-37.1c5.5,6.9,12.4,11,20.6,17.8s13.7,12.4,24.7,15.1
			c-1.4-19.2-12.4-38.4-16.5-57.7c11-2.7,41.2-24.7,50.8-38.4h-63.1l-17.8-53.5c-11,8.2-16.5,38.4-19.2,53.5h-124.9l-17.8-53.5
			c-11,8.4-19.2,37.2-20.6,53.7L1763.1,1180.8L1763.1,1180.8z"/>
		<path class="st0" d="M1730.2,1276.9c-2.7-19.2-12.4-38.4-17.8-57.7c12.4-4.1,16.5-9.6,26.1-16.5c16.5-12.4,17.8-9.6,20.6-22h-59
			c-5.5-11-12.4-39.8-16.5-53.5c-11,8.2-8.2,8.2-12.4,24.7c-4.2,9.7-6.9,16.5-8.3,28.9h-63.1c4.1,9.6,2.7,6.9,9.6,12.4
			c53.5,45.3,39.8,4.1,20.6,87.9l49.4-37.1c8.2,5.5,15.1,11,24.7,17.8C1715.1,1268.7,1717.8,1274.2,1730.2,1276.9z"/>
		<path class="st0" d="M1483.1,1223.4c0,13.7-12.4,41.2-16.5,57.7l37.1-26.1c5.5-4.1,9.6-6.9,13.7-11c13.7,9.6,31.6,28.8,49.4,32.9
			c-1.4-19.2-12.4-38.4-16.5-57.7c15.1-8.2,41.2-20.6,45.3-38.4h-57.7c-5.5-9.6-15.1-39.8-16.5-53.5c-10.8,8.2-19.1,37-20.5,53.5
			h-63.1C1444.7,1201.4,1483.1,1211,1483.1,1223.4z"/>
		<path class="st0" d="M1441.9,1098.4h37.1l-4.1-46.7h38.4c0,54.9-1.4,19.2-8.2,46.7h41.2c-6.9-27.5-8.2,9.6-8.2-50.8
			c0-23.3,6.9-28.8,8.2-49.4c-67.3,0-32.9,5.5-32.9,20.6v20.6H1475c0-50.8,20.6-30.2,2.7-39.8c-8.2-4.1-24.7-1.4-35.7-1.4
			c4.1,16.5,12.4,11,6.9,48C1446,1065.5,1446,1080.6,1441.9,1098.4z"/>
		<path class="st0" d="M1591.5,1043.5c0,82.4,108.4,72.8,108.4,0C1700,980.4,1591.5,984.5,1591.5,1043.5z"/>
		<path class="st2" d="M1621.7,1055.9c0,16.4,8.3,26,16.5,34.3c35.6-4.1,32.9-26.1,32.9-50.8
			C1671.1,1007.9,1621.7,984.5,1621.7,1055.9z"/>
		<path class="st0" d="M696.6,1426.5c-61.8-13.7-92,39.8-92,54.9c0,9.6,1.4,4.1,4.1,16.5C680.1,1497.9,696.6,1489.7,696.6,1426.5z"
			/>
		<path class="st0" d="M1875.7,1098.4h78.2c4.1-6.9,12.4-19.2,2.7-23.3c-12.4-4.1-6.9,11-23.3,11h-24.7v-34.3l37.1,4.1
			c0-38.4-2.7-16.5-37.1-16.5v-28.8c45.3,0,37.1,13.7,46.7,4.1c5.5-5.5,2.7-12.4-9.6-16.5h-54.9c-28.8,2.7-6.9,6.9-6.9,20.6
			C1883.9,1092.9,1885.3,1053.1,1875.7,1098.4z"/>
		<path class="st0" d="M1775.5,1010.6c0,15.1,0,30.2,0,45.3c0,34.3-2.7,22-8.2,42.6h41.2c-8.2-30.2-8.2,9.6-8.2-75.5
			c0-11-1.4-5.5,6.9-9.6c15.1-6.9,8.2,0,11,1.4c6.9,2.7,15.1,16.5,15.1-4.1c0-17.8-17.8-12.4-37.1-12.4c-16.5,0-32.9,0-49.4,0
			c-1.4,16.5-11,22,2.7,22C1764.5,1020.2,1752.1,1011.9,1775.5,1010.6z"/>
		<path class="st0" d="M2004.7,998.1c1.4,12.5,4.1,15.2,4.1,28.9c0,35.7,2.7,41.2-4.1,71.4h74.1c11-46.7-6.9-12.4-20.6-12.4h-20.6
			v-67.3C2037.6,1000.9,2074.7,998.1,2004.7,998.1z"/>
	</g>
</g>
<ellipse transform="matrix(0.7071 -0.7071 0.7071 0.7071 -742.1366 1418.3239)" class="st3" cx="1341" cy="1605" rx="107.9" ry="34.2"/>
<ellipse transform="matrix(0.7071 -0.7071 0.7071 0.7071 -410.1231 2238.8752)" class="st3" cx="2497.5" cy="1614.5" rx="77.4" ry="26.1"/>
<ellipse transform="matrix(0.7071 -0.7071 0.7071 0.7071 -263.9902 2601.6714)" class="st3" cx="3008.5" cy="1619.5" rx="97.3" ry="38.4"/>
<ellipse transform="matrix(0.7071 -0.7071 0.7071 0.7071 -117.9517 2939.2395)" class="st3" cx="3489" cy="1612" rx="44.9" ry="23"/>
</svg>
